<svg width="30" height="30" viewBox="0 0 30 30" fill="none" xmlns="http://www.w3.org/2000/svg">
<path d="M3.75 13.75L15 5L26.25 13.75" stroke="#1B4965" stroke-width="2" stroke-linecap="round" stroke-linejoin="round"/>
<path d="M7.25 11.875C7.25 11.3227 6.80228 10.875 6.25 10.875C5.69772 10.875 5.25 11.3227 5.25 11.875H7.25ZM6.25 26.25H5.25C5.25 26.8023 5.69772 27.25 6.25 27.25V26.25ZM23.75 26.25V27.25C24.3023 27.25 24.75 26.8023 24.75 26.25H23.75ZM24.75 12.5C24.75 11.9477 24.3023 11.5 23.75 11.5C23.1977 11.5 22.75 11.9477 22.75 12.5H24.75ZM16.25 21.25H17.25C17.25 20.6977 16.8023 20.25 16.25 20.25V21.25ZM13.75 21.25V20.25C13.1977 20.25 12.75 20.6977 12.75 21.25H13.75ZM5.25 11.875V26.25H7.25V11.875H5.25ZM24.75 26.25V12.5H22.75V26.25H24.75ZM17.25 26.25V21.25H15.25V26.25H17.25ZM23.75 25.25H16.25V27.25H23.75V25.25ZM16.25 20.25H13.75V22.25H16.25V20.25ZM6.25 27.25H13.75V25.25H6.25V27.25ZM13.75 27.25H16.25V25.25H13.75V27.25ZM12.75 21.25V26.25H14.75V21.25H12.75Z" fill="#1B4965"/>
</svg>
