<svg width="28" height="26" viewBox="0 0 28 26" fill="none" xmlns="http://www.w3.org/2000/svg">
<path fill-rule="evenodd" clip-rule="evenodd" d="M3.0625 6.75C3.0625 3.29822 5.86072 0.5 9.3125 0.5H14C17.4518 0.5 20.25 3.29822 20.25 6.75V8.14718C22.8766 8.7716 24.9375 11.3051 24.9375 14.25V18.4702C24.9375 19.2013 25.1512 19.9164 25.5523 20.5276L27.5451 23.5642C27.7971 23.9482 27.8182 24.4396 27.6 24.8438C27.3817 25.248 26.9594 25.5 26.5 25.5H14C10.5482 25.5 7.75 22.7018 7.75 19.25V18H1.5C1.04063 18 0.618276 17.748 0.400052 17.3438C0.181829 16.9396 0.202906 16.4482 0.454942 16.0642L2.44768 13.0276C2.8488 12.4164 3.0625 11.7013 3.0625 10.9702V6.75ZM10.25 18V19.25C10.25 21.3211 11.9289 23 14 23H24.1846L23.4622 21.8993C22.7937 20.8806 22.4375 19.6886 22.4375 18.4702V14.25C22.4375 12.6538 21.4606 11.3386 20.25 10.7837V11.75C20.25 15.2018 17.4518 18 14 18H10.25ZM3.81544 15.5L4.5378 14.3993C5.20633 13.3806 5.5625 12.1886 5.5625 10.9702V6.75C5.5625 4.67893 7.24143 3 9.3125 3H14C16.0711 3 17.75 4.67893 17.75 6.75V11.75C17.75 13.8211 16.0711 15.5 14 15.5H3.81544Z" fill="#1B4965"/>
</svg>
